<svg width="146" height="147" viewBox="0 0 146 147" fill="none" xmlns="http://www.w3.org/2000/svg">
<path d="M73.4004 146.009C113.496 146.009 146 113.505 146 73.4092C146 33.3135 113.496 0.80957 73.4004 0.80957C33.3047 0.80957 0.800781 33.3135 0.800781 73.4092C0.800781 113.505 33.3047 146.009 73.4004 146.009Z" fill="white"/>
<path d="M105.258 62.0537H84.7559V82.5558H105.258V62.0537Z" fill="#262626"/>
<path d="M64.2674 90.2369C64.2674 91.7589 63.8161 93.2468 62.9705 94.5123C62.1249 95.7778 60.923 96.7642 59.5168 97.3466C58.1106 97.9291 56.5633 98.0815 55.0705 97.7846C53.5777 97.4876 52.2065 96.7547 51.1303 95.6785C50.054 94.6022 49.3211 93.231 49.0242 91.7382C48.7272 90.2454 48.8796 88.6981 49.4621 87.2919C50.0445 85.8857 51.0309 84.6839 52.2964 83.8383C53.562 82.9927 55.0498 82.5413 56.5718 82.5413H64.2674V62.0537H56.5718C50.9977 62.0537 45.5488 63.7066 40.9141 66.8034C36.2794 69.9002 32.6671 74.3018 30.534 79.4516C28.4009 84.6014 27.8428 90.2681 28.9302 95.7351C30.0177 101.202 32.7019 106.224 36.6433 110.165C40.5848 114.107 45.6066 116.791 51.0736 117.879C56.5406 118.966 62.2073 118.408 67.3571 116.275C72.5069 114.142 76.9085 110.529 80.0053 105.895C83.1021 101.26 84.755 95.811 84.755 90.2369V82.5413H64.2674V90.2369Z" fill="#262626"/>
<path d="M92.4517 51.8039H115.509V31.3018H92.4517C84.9794 31.3094 77.8154 34.2812 72.5317 39.5649C67.248 44.8486 64.2762 52.0126 64.2686 59.4849V62.0549H84.7562V59.4849C84.76 57.4465 85.5725 55.4928 87.0153 54.0527C88.458 52.6127 90.4132 51.8039 92.4517 51.8039Z" fill="#262626"/>
<path d="M64.2686 82.5413H84.7562V62.0537H64.2686V82.5413Z" fill="white"/>
</svg>
