<svg width="154" height="38" viewBox="0 0 154 38" fill="none" xmlns="http://www.w3.org/2000/svg">
<path d="M73.4915 13.0001V25.7939H70.6644V15.7725H69.8511L65.3364 25.7939H62.2455L68.0096 13.0001L73.4915 13.0001Z" fill="white"/>
<path d="M56.4814 13.0001L62.2455 25.7939H59.1551L54.64 15.7725H53.8271V25.7939H51V13.0001L56.4814 13.0001Z" fill="white"/>
<path d="M105.825 25.7939H108.652V13.0001H105.825V25.7939Z" fill="white"/>
<path fill-rule="evenodd" clip-rule="evenodd" d="M78.2893 25.7939L80.1673 21.6251H86.9294L88.8076 25.7939H91.898L86.1344 13.0001H80.9624L75.1983 25.7939H78.2893ZM81.4162 18.8528L82.8039 15.7725H84.2925L85.6803 18.8528H81.4162Z" fill="white"/>
<path d="M96.359 15.7725V25.7939H93.5319V13.0001L100.06 13.0001L105.825 25.7939L102.734 25.7939L98.2189 15.7725H96.359Z" fill="white"/>
<path d="M119.384 15.7725V25.7939H116.557V15.7725H110.222V13.0001H125.719V15.7725H119.384Z" fill="white"/>
<path d="M127.289 13.0001H130.116V23.0216H139.069V25.7939L127.289 25.7939V13.0001Z" fill="white"/>
<path d="M143.467 20.5984V23.0216H153.467V25.7939L140.639 25.7939V13.0001L153.466 13.0001V15.7725H143.467V17.826L152.589 17.826V20.5984H143.467Z" fill="white"/>
<path d="M18.6598 37.897L18.6623 31.6011C18.0184 31.6011 17.3695 31.5505 16.7343 31.4505L15.7429 37.6698C16.7044 37.8204 17.6859 37.897 18.6611 37.897H18.6598ZM21.5768 37.6723C22.5408 37.5217 23.4985 37.2958 24.4252 36.9983L22.4698 31.0085C21.8595 31.2048 21.2268 31.3542 20.5903 31.453L21.5768 37.6723ZM12.8932 36.9946L14.8536 31.0061C14.2421 30.8098 13.643 30.5629 13.0713 30.274L10.1843 35.8823C11.0524 36.3218 11.9641 36.6958 12.8932 36.9946ZM27.1329 35.8897C28.0022 35.4515 28.8429 34.9404 29.6325 34.3713L25.8948 29.2803C25.3755 29.6555 24.8225 29.9913 24.2508 30.279L27.1329 35.8897ZM7.68588 34.3614L11.4273 29.2729C10.9104 28.9 10.4172 28.4803 9.95889 28.0273L5.46394 32.4763L5.46767 32.48C6.15767 33.164 6.90371 33.7972 7.68588 34.3614ZM31.8246 32.5183L31.8632 32.4788C32.5507 31.7974 33.1884 31.0592 33.7588 30.2851L28.6262 26.5755C28.2501 27.0866 27.8278 27.5754 27.372 28.0285L27.3085 28.0927L29.4681 30.1135L31.8246 32.5183ZM3.56333 30.2728L8.69846 26.5669C8.31983 26.0521 7.98106 25.504 7.68961 24.9373L2.03014 27.7952C2.47229 28.6556 2.98792 29.4889 3.56333 30.2716V30.2728ZM35.2945 27.8075C35.7379 26.9471 36.1153 26.0434 36.4179 25.1225L30.3761 23.1782C30.1781 23.7843 29.929 24.3781 29.6375 24.9447L35.2945 27.8075ZM0.910446 25.1089L6.95354 23.1696C6.7555 22.5647 6.6048 21.9375 6.50392 21.3067L0.229168 22.2869C0.381115 23.2424 0.610287 24.1917 0.910446 25.1102V25.1089ZM37.1005 22.3005C37.2524 21.3475 37.3296 20.3747 37.3309 19.4093L30.9789 19.4056C30.9789 20.0438 30.9278 20.687 30.827 21.3178L37.1005 22.3005ZM6.35321 19.3957C6.35321 18.7575 6.40428 18.1131 6.50392 17.4835L0.229168 16.5033C0.0772171 17.4564 0.00124359 18.4291 0 19.3945H6.35196L6.35321 19.3957ZM30.8294 17.4934L37.1042 16.5169C36.9535 15.5614 36.7243 14.6121 36.4254 13.6937L30.3811 15.6293C30.5791 16.2355 30.7298 16.8613 30.8294 17.4922V17.4934ZM6.95354 15.6219C7.15157 15.0158 7.40066 14.4208 7.69086 13.8541L2.03138 10.9951C1.58924 11.8555 1.21185 12.7591 0.910446 13.6801L6.95229 15.6219H6.95354ZM29.645 13.8628L35.307 11.0086C34.8648 10.147 34.3492 9.31369 33.775 8.53103L28.6374 12.2345C29.0148 12.7493 29.3536 13.2974 29.645 13.864V13.8628ZM8.70095 12.2246C9.07833 11.7111 9.50179 11.2197 9.96013 10.7667L9.97259 10.7543L5.48137 6.30278L5.46892 6.31513C4.77892 6.99903 4.13874 7.74096 3.56707 8.51745L8.70095 12.2246ZM27.3944 10.7889L28.7507 9.41739L31.8732 6.32377L31.8632 6.3139C31.1769 5.63369 30.4334 5.00287 29.6537 4.43871L25.9098 9.52479C26.4254 9.89761 26.9174 10.3149 27.372 10.7667L27.3944 10.7889ZM11.4423 9.51121C11.9616 9.13716 12.5146 8.80138 13.0863 8.51375L10.208 2.90178C9.33863 3.34002 8.49793 3.84986 7.7083 4.41896L11.4423 9.51121ZM24.267 8.52362L27.1578 2.91783C26.2897 2.47835 25.3792 2.10307 24.4501 1.80432L22.486 7.79157C23.0975 7.98909 23.6966 8.23475 24.2682 8.52486L24.267 8.52362ZM14.8698 7.78417C15.4814 7.58912 16.1141 7.43975 16.7493 7.34099L15.7666 1.12041C14.8038 1.26979 13.8448 1.4957 12.9182 1.79321L14.8698 7.78417ZM20.6065 7.34469L21.6004 1.12535C20.6389 0.974745 19.6575 0.896973 18.6835 0.896973L18.6773 7.19285C19.3212 7.19285 19.9701 7.2447 20.6065 7.34469Z" fill="white"/>
<path d="M18.6636 31.8794V25.5518C18.1271 25.5518 17.5918 25.4823 17.0741 25.347L15.4166 31.46C16.4746 31.7379 17.5666 31.8794 18.6636 31.8794ZM21.9106 31.46C22.9724 31.1808 23.9939 30.7652 24.9436 30.2243L21.7293 24.7453C21.267 25.0083 20.7708 25.2106 20.2544 25.3458L21.9106 31.46ZM12.3824 30.223L15.5979 24.7453C15.137 24.4823 14.71 24.1584 14.3271 23.7825L14.2679 23.7254L12.2388 25.8297L9.74875 28.2205L9.78527 28.2553C10.5637 29.022 11.4378 29.6833 12.3837 30.223H12.3824ZM27.5419 28.2577H27.5432C28.3203 27.4897 28.9916 26.6299 29.5383 25.6994L23.9788 22.5306C23.7117 22.9847 23.383 23.4053 23.0014 23.7813L27.5419 28.2577ZM7.78138 25.6857L13.3459 22.5244C13.0789 22.0691 12.8749 21.5802 12.7376 21.0703L6.52942 22.6969C6.81155 23.7428 7.23349 24.749 7.78138 25.6857ZM30.7953 22.713C31.0774 21.6708 31.221 20.5951 31.2222 19.5145L24.7987 19.512C24.7987 20.0418 24.7282 20.5691 24.5896 21.079L30.7953 22.713ZM12.531 19.5045C12.531 18.9748 12.6016 18.4475 12.7414 17.9375L6.53698 16.2998C6.25359 17.342 6.10874 18.4177 6.10874 19.4983L12.5323 19.5045H12.531ZM24.5909 17.945L30.7978 16.3159C30.5144 15.27 30.0925 14.2638 29.5446 13.3283L23.9813 16.4921C24.2483 16.9474 24.4536 17.4363 24.5909 17.945ZM13.3522 16.4847C13.6155 16.0368 13.9404 15.6211 14.3158 15.2489L14.3321 15.2328L12.0348 12.9697L9.82558 10.7253L9.78527 10.7638C9.00941 11.528 8.33935 12.3854 7.79398 13.3134L13.3522 16.4847ZM23.0052 15.2402L25.2798 12.9995L27.6011 10.8208L27.5432 10.7625C26.7673 9.99823 25.8945 9.33694 24.9511 8.79847L21.733 14.275C22.1877 14.5343 22.6109 14.8544 22.9888 15.2241L23.0052 15.2402ZM15.6017 14.2712C16.0627 14.0082 16.559 13.8072 17.0766 13.6707L15.4241 7.55652C14.3611 7.83568 13.3409 8.25007 12.39 8.79102L15.6017 14.2712ZM20.2582 13.6732L21.9195 7.56024C20.8615 7.28108 19.7695 7.13964 18.6724 7.1384L18.6686 13.466C19.2065 13.466 19.7417 13.5355 20.2594 13.672L20.2582 13.6732Z" fill="white"/>
</svg>
